<?xml version="1.0" standalone="no"?>
<!DOCTYPE svg PUBLIC "-//W3C//DTD SVG 20010904//EN"
 "http://www.w3.org/TR/2001/REC-SVG-20010904/DTD/svg10.dtd">
<svg version="1.0" xmlns="http://www.w3.org/2000/svg"
 width="1970.000000pt" height="1504.000000pt" viewBox="0 0 1970.000000 1504.000000"
 preserveAspectRatio="xMidYMid meet">

<g transform="translate(0.000000,1504.000000) scale(0.100000,-0.100000)"
fill="#000000" stroke="none">
<path d="M8555 13615 c-27 -7 -107 -14 -176 -14 -88 -1 -138 -6 -162 -16 -20
-8 -60 -15 -89 -15 -29 -1 -64 -7 -78 -15 -15 -9 -53 -14 -96 -15 -44 0 -83
-6 -100 -15 -16 -8 -48 -15 -70 -15 -23 0 -58 -7 -77 -15 -20 -8 -56 -15 -81
-15 -25 0 -47 -4 -51 -9 -3 -6 -26 -13 -52 -17 -25 -4 -58 -13 -72 -20 -14 -8
-43 -14 -63 -14 -20 0 -39 -4 -42 -9 -3 -5 -26 -12 -51 -15 -24 -4 -47 -11
-50 -17 -4 -5 -16 -9 -28 -9 -12 0 -35 -7 -51 -15 -15 -8 -38 -15 -50 -15 -11
0 -34 -7 -50 -15 -15 -8 -41 -15 -56 -15 -15 0 -33 -7 -40 -15 -7 -8 -25 -15
-40 -15 -15 0 -33 -7 -40 -15 -7 -8 -25 -15 -39 -15 -15 0 -36 -7 -47 -15 -10
-8 -29 -15 -40 -15 -12 0 -27 -7 -34 -15 -7 -8 -23 -15 -35 -15 -12 0 -28 -7
-35 -15 -7 -8 -25 -15 -40 -15 -15 0 -33 -7 -40 -15 -7 -8 -19 -15 -26 -15
-16 0 -92 -39 -100 -51 -3 -5 -15 -9 -27 -9 -12 0 -31 -7 -41 -15 -11 -8 -26
-15 -33 -15 -7 0 -35 -13 -61 -30 -27 -16 -54 -30 -61 -30 -6 0 -28 -11 -49
-24 -20 -12 -48 -27 -61 -31 -14 -4 -53 -25 -88 -46 -35 -22 -68 -39 -74 -39
-6 0 -28 -13 -48 -28 -20 -15 -56 -38 -81 -50 -59 -30 -74 -39 -140 -88 -30
-23 -91 -63 -135 -89 -69 -42 -270 -186 -285 -205 -3 -3 -41 -33 -85 -67 -44
-33 -96 -78 -115 -99 -20 -21 -58 -57 -85 -79 -28 -22 -75 -64 -106 -95 -31
-30 -80 -75 -109 -100 -30 -25 -58 -51 -64 -59 -6 -7 -28 -30 -49 -51 -20 -21
-37 -43 -37 -48 0 -5 -19 -27 -42 -50 -24 -23 -60 -61 -80 -84 -21 -24 -53
-60 -71 -80 -66 -72 -117 -136 -117 -147 0 -6 -7 -14 -15 -18 -9 -3 -22 -17
-30 -32 -12 -23 -27 -42 -90 -114 -9 -10 -20 -29 -25 -42 -5 -14 -14 -25 -20
-25 -5 0 -10 -7 -10 -15 0 -8 -9 -23 -20 -32 -11 -10 -20 -23 -20 -30 0 -7 -9
-21 -20 -30 -11 -10 -20 -22 -20 -29 0 -6 -9 -19 -20 -29 -11 -10 -20 -24 -20
-32 0 -7 -9 -21 -20 -30 -11 -10 -20 -24 -20 -33 0 -9 -9 -23 -20 -33 -11 -9
-20 -23 -20 -31 0 -7 -7 -19 -15 -26 -8 -7 -15 -21 -15 -31 0 -10 -9 -23 -20
-29 -11 -6 -20 -19 -20 -29 0 -10 -9 -26 -20 -36 -11 -10 -20 -28 -20 -40 0
-12 -9 -30 -20 -40 -11 -10 -20 -25 -20 -32 0 -8 -9 -26 -20 -40 -11 -14 -20
-32 -20 -40 0 -8 -9 -26 -20 -40 -11 -14 -20 -36 -20 -50 0 -13 -7 -26 -15
-29 -8 -4 -15 -16 -15 -29 0 -12 -9 -34 -20 -48 -11 -14 -20 -33 -20 -42 0 -9
-9 -28 -20 -42 -11 -14 -20 -36 -20 -48 0 -12 -9 -34 -20 -48 -11 -14 -20 -37
-20 -52 0 -15 -9 -38 -20 -52 -11 -14 -20 -40 -20 -58 0 -19 -8 -39 -20 -50
-14 -12 -20 -31 -20 -58 0 -22 -7 -48 -15 -57 -8 -9 -18 -39 -21 -66 -4 -27
-12 -56 -19 -64 -7 -8 -15 -37 -18 -63 -2 -26 -11 -56 -20 -65 -8 -10 -17 -44
-19 -79 -3 -39 -10 -69 -21 -81 -12 -13 -17 -36 -17 -80 0 -43 -6 -74 -20 -99
-15 -28 -20 -57 -20 -108 0 -51 -5 -77 -17 -95 -14 -20 -19 -56 -24 -170 -3
-87 -11 -159 -20 -180 -21 -53 -21 -784 1 -820 10 -17 16 -68 20 -165 4 -110
9 -145 23 -165 13 -18 17 -45 17 -105 0 -63 4 -86 20 -110 14 -21 20 -47 20
-89 0 -41 5 -65 17 -78 10 -11 18 -41 21 -76 2 -31 12 -75 23 -98 10 -22 19
-56 19 -76 0 -20 6 -41 14 -47 7 -6 16 -36 19 -67 3 -31 13 -64 21 -73 9 -10
16 -31 16 -48 0 -17 9 -42 20 -56 11 -14 20 -38 20 -55 0 -16 9 -37 20 -47 12
-11 20 -31 20 -50 0 -18 9 -42 20 -55 11 -13 20 -34 20 -47 0 -13 7 -26 15
-29 8 -4 18 -24 21 -46 4 -22 13 -42 20 -45 8 -3 17 -23 20 -44 4 -21 13 -44
20 -50 8 -6 14 -21 14 -34 0 -12 9 -30 20 -40 11 -10 20 -26 20 -35 0 -9 9
-25 20 -35 11 -10 20 -26 20 -37 0 -10 9 -26 20 -35 11 -10 20 -28 20 -41 0
-12 7 -25 15 -28 8 -3 17 -21 21 -39 3 -19 15 -41 25 -51 10 -9 19 -25 19 -36
0 -10 5 -18 11 -18 5 0 15 -13 20 -29 6 -16 17 -32 25 -35 8 -3 14 -14 14 -24
0 -10 9 -27 20 -37 11 -10 20 -23 20 -30 0 -13 68 -109 99 -141 12 -12 21 -29
21 -38 0 -9 5 -16 10 -16 6 0 16 -12 23 -27 13 -30 17 -35 77 -104 22 -25 40
-51 40 -57 0 -6 9 -16 20 -22 11 -6 20 -15 20 -21 0 -44 491 -567 655 -698 38
-31 93 -77 120 -102 260 -242 793 -586 1235 -797 827 -393 1711 -591 2640
-592 649 0 1245 85 1830 262 1263 381 2351 1155 3077 2188 460 655 758 1400
874 2179 66 451 66 1001 0 1452 -218 1472 -1083 2784 -2408 3653 -72 47 -136
86 -141 86 -5 0 -27 13 -50 29 -22 17 -73 47 -112 68 -97 52 -179 95 -215 115
-74 40 -155 78 -168 78 -8 0 -20 7 -27 15 -7 8 -23 15 -36 15 -12 0 -25 4 -29
9 -3 6 -27 20 -53 32 -26 12 -59 28 -74 35 -14 8 -35 14 -46 14 -11 0 -25 7
-32 15 -7 8 -25 15 -40 15 -15 0 -33 7 -40 15 -7 8 -25 15 -40 15 -15 0 -33 7
-40 15 -7 8 -22 15 -34 15 -11 0 -30 7 -40 15 -11 8 -30 15 -42 15 -13 0 -25
4 -29 9 -3 5 -20 12 -38 16 -48 10 -129 36 -159 51 -14 8 -38 14 -51 14 -14 0
-28 4 -31 9 -4 5 -29 12 -56 16 -27 4 -52 11 -56 16 -3 5 -21 9 -40 9 -19 0
-51 7 -71 15 -19 8 -50 15 -67 15 -18 0 -41 7 -52 15 -10 8 -36 15 -57 15 -21
0 -54 7 -74 15 -19 8 -53 15 -75 15 -21 0 -55 7 -75 15 -19 8 -61 15 -92 15
-31 0 -69 7 -85 15 -18 10 -57 15 -107 15 -48 0 -94 6 -116 15 -25 11 -72 15
-158 15 -83 0 -136 5 -165 15 -57 20 -786 20 -865 0z m4090 -1957 c4 -4 13 -4
21 -1 8 3 14 0 14 -7 0 -6 5 -8 10 -5 6 3 10 1 10 -5 0 -6 4 -9 8 -6 20 12 89
-85 76 -106 -5 -7 -3 -8 6 -3 10 6 12 3 8 -13 -4 -12 -2 -22 3 -22 5 0 9 -11
9 -25 0 -14 -4 -25 -9 -25 -4 0 -6 -11 -3 -25 2 -14 0 -25 -6 -25 -6 0 -8 -9
-5 -20 3 -11 1 -20 -5 -20 -6 0 -8 -9 -5 -20 3 -11 0 -20 -6 -20 -5 0 -8 -7
-5 -15 4 -8 1 -15 -6 -15 -7 0 -9 -8 -5 -20 4 -11 2 -20 -4 -20 -6 0 -8 -7 -5
-15 4 -8 1 -15 -5 -15 -6 0 -8 -7 -5 -15 4 -8 1 -15 -6 -15 -7 0 -10 -7 -6
-15 3 -8 1 -15 -5 -15 -6 0 -9 -7 -5 -15 3 -8 1 -15 -5 -15 -6 0 -9 -7 -5 -15
3 -8 1 -15 -5 -15 -6 0 -8 -9 -4 -21 5 -16 4 -19 -6 -14 -9 6 -11 3 -6 -8 4
-10 2 -17 -4 -17 -6 0 -9 -7 -5 -15 3 -8 1 -15 -5 -15 -6 0 -8 -4 -5 -9 7 -11
-13 -71 -25 -71 -4 0 -6 -7 -3 -15 4 -8 1 -15 -5 -15 -6 0 -8 -7 -4 -17 4 -10
2 -14 -4 -10 -7 5 -9 -1 -5 -15 3 -14 1 -19 -6 -14 -8 5 -10 2 -6 -8 3 -9 2
-16 -3 -16 -5 0 -9 -8 -10 -17 -5 -46 -22 -111 -37 -138 -9 -16 -16 -40 -16
-53 0 -12 -7 -25 -15 -28 -8 -4 -15 -14 -15 -24 0 -9 -8 -28 -19 -41 -10 -13
-21 -34 -25 -46 -4 -11 -13 -27 -21 -33 -8 -7 -15 -20 -15 -30 0 -9 -9 -29
-20 -43 -11 -14 -20 -33 -20 -43 0 -9 -7 -26 -17 -36 -18 -20 -36 -49 -54 -88
-42 -92 -49 -108 -49 -118 0 -6 -6 -15 -13 -19 -11 -7 -61 -82 -116 -174 -11
-20 -21 -42 -21 -49 0 -8 -7 -22 -17 -32 -18 -21 -36 -49 -57 -94 -8 -17 -22
-36 -30 -44 -9 -7 -16 -19 -16 -26 0 -8 -7 -22 -15 -31 -8 -10 -33 -39 -55
-64 -22 -25 -40 -51 -40 -57 0 -6 -9 -16 -20 -22 -11 -6 -20 -19 -20 -29 0
-10 -9 -26 -20 -36 -11 -10 -20 -24 -20 -31 0 -7 -6 -17 -14 -21 -15 -9 -96
-109 -96 -119 0 -4 -21 -28 -47 -53 -27 -26 -61 -64 -78 -85 -16 -20 -99 -108
-182 -194 -84 -86 -153 -162 -153 -168 0 -7 -17 -24 -37 -40 -21 -16 -47 -39
-58 -52 -35 -42 -50 -56 -100 -97 -28 -22 -77 -67 -110 -100 -33 -33 -84 -78
-112 -100 -47 -35 -53 -43 -53 -76 0 -21 5 -41 10 -44 6 -4 7 -11 4 -17 -4 -6
-2 -8 4 -4 12 7 44 -33 36 -46 -3 -5 -1 -7 4 -6 10 3 102 -105 102 -120 0 -5
9 -17 20 -27 11 -10 20 -23 20 -30 0 -6 16 -26 35 -45 19 -19 35 -42 35 -51 0
-9 9 -28 20 -42 11 -14 20 -29 20 -34 0 -15 60 -132 71 -138 5 -4 9 -16 9 -29
0 -13 9 -31 20 -41 11 -10 20 -31 20 -47 0 -16 6 -41 14 -56 22 -43 107 -306
109 -338 1 -16 5 -31 8 -34 3 -3 10 -23 15 -44 5 -22 15 -41 22 -44 8 -2 10 2
5 14 -5 13 -3 15 7 9 10 -6 12 -4 7 8 -3 10 -2 17 3 17 5 0 7 7 4 15 -4 8 -1
15 5 15 6 0 8 7 5 15 -4 8 -1 15 5 15 6 0 8 7 4 17 -4 10 -2 14 4 10 12 -8 26
20 17 34 -3 5 0 9 7 9 7 0 9 3 6 7 -4 3 1 12 11 20 11 9 12 12 2 7 -8 -3 1 8
20 26 19 18 26 26 16 19 -14 -10 -18 -10 -12 -2 4 7 16 18 28 24 16 9 19 8 13
-3 -3 -7 0 -5 8 5 9 10 21 15 31 11 9 -3 16 -2 16 2 0 5 27 9 60 9 33 1 60 -4
60 -9 0 -5 3 -6 7 -3 3 4 12 -1 20 -11 8 -9 11 -11 8 -4 -6 11 -3 12 14 2 12
-6 25 -18 28 -26 8 -20 27 -17 49 8 13 14 14 19 4 14 -8 -4 -4 2 10 14 14 12
19 19 12 15 -10 -5 -9 1 2 24 9 17 21 31 27 31 6 0 7 5 4 10 -3 6 -1 10 5 10
6 0 8 5 5 10 -3 6 -1 10 6 10 7 0 9 3 6 7 -4 3 1 12 11 20 9 8 11 11 4 8 -7
-4 1 20 18 54 16 34 35 61 41 61 5 0 7 5 4 10 -3 6 -1 10 5 10 6 0 8 5 5 10
-3 6 -1 10 5 10 6 0 8 5 5 10 -3 6 -1 10 5 10 6 0 9 4 6 9 -3 5 1 12 10 15 9
4 14 13 10 21 -3 8 -1 15 4 15 5 0 14 10 21 21 8 16 8 20 -1 14 -9 -6 -9 -2
-1 14 7 11 16 21 22 21 6 0 7 5 4 10 -3 6 -1 10 5 10 6 0 8 5 5 10 -3 6 -1 10
5 10 6 0 8 5 5 10 -3 6 -1 10 5 10 6 0 9 4 6 9 -3 5 1 12 10 15 9 4 14 13 10
21 -3 8 -1 15 4 15 5 0 17 14 26 31 11 23 12 29 2 24 -7 -3 -5 0 4 8 10 8 15
17 11 20 -3 4 -1 7 6 7 7 0 9 5 6 10 -3 6 -1 10 5 10 6 0 8 5 5 10 -3 6 -1 10
5 10 6 0 8 5 5 10 -3 6 -1 10 5 10 6 0 8 5 5 10 -3 6 -2 10 4 10 6 0 15 10 22
21 8 16 8 20 -1 14 -7 -4 -5 6 4 24 9 17 21 31 27 31 6 0 7 5 4 10 -3 6 -1 10
5 10 6 0 8 5 5 10 -3 6 -1 10 5 10 6 0 8 5 5 10 -3 6 -1 10 5 10 6 0 8 5 5 10
-3 6 -1 10 6 10 7 0 9 3 6 7 -4 3 1 12 11 20 9 8 11 12 5 8 -9 -4 -11 -1 -7 9
3 9 10 16 16 16 5 0 6 5 3 10 -3 6 -1 10 5 10 6 0 8 5 5 10 -3 6 -1 10 5 10 6
0 8 5 5 10 -3 6 -1 10 5 10 6 0 8 5 5 10 -3 6 -2 10 4 10 6 0 15 10 22 21 8
16 8 20 -1 14 -9 -6 -9 -2 -1 14 7 11 16 21 22 21 6 0 7 5 4 10 -3 6 -1 10 5
10 6 0 8 5 5 10 -3 6 -1 10 5 10 6 0 8 5 5 10 -3 6 -1 10 6 10 7 0 9 3 6 7 -4
3 1 12 11 20 11 10 12 12 2 8 -10 -4 -9 -2 2 8 10 8 15 17 11 20 -3 4 -1 7 6
7 7 0 9 5 6 10 -3 6 -2 10 4 10 6 0 15 10 22 21 9 17 8 20 -3 14 -7 -4 -2 3
12 15 14 12 18 19 10 15 -8 -4 -6 1 4 9 11 9 16 16 10 16 -5 0 2 10 16 21 14
11 19 18 13 14 -22 -11 -15 0 24 36 20 18 33 28 29 22 -5 -9 -2 -11 8 -7 9 3
14 9 12 13 -2 3 38 6 90 6 52 0 94 -3 94 -8 0 -5 14 -6 30 -2 19 4 30 3 30 -4
0 -7 10 -9 25 -5 16 4 25 2 25 -6 0 -7 8 -10 20 -7 11 3 20 1 20 -5 0 -5 9 -6
20 -3 11 4 20 2 20 -4 0 -6 7 -7 17 -4 11 5 14 3 8 -6 -6 -10 -2 -11 15 -6 17
5 21 4 15 -5 -5 -9 -4 -11 3 -6 18 11 161 -70 275 -155 56 -42 145 -118 197
-170 106 -105 173 -178 150 -164 -9 6 -7 2 5 -9 11 -10 19 -23 18 -27 -2 -5 1
-8 6 -6 25 7 311 -409 334 -485 4 -16 12 -28 17 -28 4 0 14 -15 20 -34 6 -19
18 -40 26 -46 7 -7 14 -20 14 -29 0 -9 9 -22 20 -29 11 -7 20 -22 20 -33 0
-11 9 -32 20 -46 11 -14 20 -39 20 -56 0 -17 6 -38 13 -46 8 -9 19 -45 25 -80
13 -74 2 -136 -32 -186 -26 -37 -114 -125 -192 -191 -32 -27 -97 -87 -144
-134 -47 -47 -105 -104 -130 -127 -25 -23 -59 -56 -77 -75 -68 -71 -170 -167
-218 -204 -27 -21 -70 -57 -95 -80 -102 -93 -214 -186 -196 -163 11 13 -3 1
-30 -27 -27 -28 -65 -59 -84 -70 -40 -20 -141 -25 -147 -7 -3 7 -11 9 -19 6
-7 -3 -17 2 -20 11 -3 9 -9 14 -14 11 -4 -2 -18 8 -31 23 -13 14 -17 22 -9 17
9 -6 2 3 -15 18 -16 16 -23 26 -15 22 8 -4 2 5 -15 20 -16 14 -23 23 -15 20 8
-4 4 3 -10 14 -14 11 -21 21 -16 21 4 0 -1 8 -12 18 -29 25 -80 97 -62 88 8
-5 3 2 -11 15 -14 13 -32 33 -40 43 -12 17 -12 19 1 12 8 -4 4 2 -10 14 -14
12 -18 19 -10 15 8 -4 2 5 -15 20 -16 14 -23 23 -15 20 8 -4 4 3 -10 15 -14
12 -18 19 -10 15 8 -4 2 5 -15 20 -16 14 -23 23 -15 20 8 -4 4 3 -10 15 -14
12 -18 19 -10 15 8 -4 4 3 -10 15 -14 12 -18 19 -10 15 8 -4 4 3 -10 15 -14
12 -18 19 -10 15 8 -4 4 3 -10 16 -14 13 -20 20 -13 15 7 -5 13 -6 13 -2 0 3
-18 19 -40 35 -21 15 -36 31 -33 35 3 3 4 6 1 6 -3 0 -13 -10 -24 -22 -19 -22
-19 -23 1 -9 11 7 5 0 -13 -18 -17 -17 -32 -34 -32 -38 0 -5 -43 -63 -95 -131
-53 -67 -99 -132 -104 -145 -5 -13 -16 -29 -25 -36 -9 -7 -16 -19 -16 -25 0
-6 -15 -27 -33 -47 -17 -20 -36 -43 -42 -51 -5 -8 -19 -28 -29 -44 -56 -84
-143 -134 -232 -134 -52 0 -62 -4 -91 -32 -18 -18 -33 -40 -33 -51 0 -10 -9
-30 -20 -44 -12 -16 -20 -41 -20 -65 0 -25 -5 -41 -15 -44 -8 -3 -17 -22 -21
-41 -4 -19 -13 -37 -20 -40 -8 -3 -14 -13 -14 -23 0 -9 -9 -29 -20 -43 -11
-14 -20 -30 -20 -36 0 -5 -6 -14 -13 -18 -7 -4 -20 -20 -29 -34 -20 -32 -75
-59 -119 -59 -37 0 -99 20 -99 32 0 4 -6 5 -14 2 -7 -3 -16 2 -20 11 -3 9 -10
14 -15 11 -5 -3 -14 1 -21 9 -7 8 -18 15 -24 15 -19 0 -66 -24 -66 -34 0 -14
-118 -122 -179 -163 -31 -21 -58 -40 -61 -44 -17 -19 -124 -91 -170 -114 -30
-15 -68 -37 -85 -49 -16 -12 -48 -30 -70 -40 -73 -32 -99 -44 -194 -90 -51
-25 -100 -46 -108 -46 -20 0 -111 -29 -145 -46 -14 -8 -35 -14 -46 -14 -12 0
-23 -4 -26 -9 -3 -4 -26 -11 -52 -15 -26 -3 -52 -10 -58 -15 -6 -5 -48 -11
-94 -13 -45 -3 -88 -10 -94 -16 -7 -7 -34 -12 -60 -12 -27 0 -65 -7 -85 -15
-23 -10 -69 -15 -135 -15 -65 0 -111 -5 -135 -15 -30 -13 -107 -15 -474 -15
-305 0 -446 3 -466 11 -15 7 -77 15 -138 20 -60 4 -137 12 -170 19 -152 28
-234 40 -276 40 -26 0 -60 7 -75 15 -16 8 -44 15 -62 15 -18 0 -40 4 -50 9 -9
5 -66 21 -127 36 -123 29 -277 74 -285 84 -3 3 -16 7 -30 9 -43 4 -231 78
-223 87 4 4 3 5 -3 2 -13 -7 -85 13 -79 23 2 4 -2 7 -10 7 -30 0 -108 36 -260
122 -90 51 -199 122 -145 95 9 -4 12 -3 7 2 -5 5 -16 9 -25 9 -10 0 -16 6 -14
15 2 8 0 12 -3 8 -12 -11 -46 11 -39 25 4 7 4 9 -1 5 -11 -10 -47 11 -40 23 4
5 2 8 -4 7 -17 -5 -122 82 -115 95 4 7 4 9 -1 5 -10 -10 -56 30 -132 114 -35
39 -60 75 -56 81 3 6 1 7 -5 3 -12 -7 -38 32 -33 49 1 5 -1 7 -5 3 -9 -10 -37
29 -29 41 3 5 0 13 -6 17 -8 4 -9 3 -5 -4 4 -7 5 -12 2 -12 -10 0 -35 57 -29
64 4 3 1 6 -5 6 -15 0 -45 57 -37 70 3 6 1 10 -5 10 -6 0 -8 5 -5 10 3 6 1 10
-5 10 -6 0 -8 5 -5 10 3 6 1 10 -5 10 -7 0 -10 7 -6 15 3 8 1 15 -5 15 -6 0
-8 7 -5 16 4 10 2 13 -6 8 -8 -5 -9 -2 -5 9 3 10 2 17 -4 17 -6 0 -8 9 -4 21
5 16 4 19 -6 14 -9 -6 -11 -2 -7 13 4 14 2 20 -4 16 -7 -5 -9 2 -4 20 5 20 4
26 -5 20 -9 -5 -10 0 -5 20 4 15 2 26 -4 26 -5 0 -7 13 -3 30 4 21 2 30 -7 30
-10 0 -11 15 -7 60 3 33 2 60 -3 60 -4 0 -7 97 -7 215 0 127 4 215 10 215 5 0
6 19 3 45 -5 32 -4 45 5 45 7 0 9 11 5 35 -5 23 -3 35 4 35 8 0 9 11 5 30 -4
20 -3 30 5 30 8 0 10 9 6 25 -4 15 -2 25 5 25 7 0 8 11 4 31 -5 24 -4 30 5 24
10 -6 11 -1 6 19 -4 16 -2 26 4 26 7 0 9 8 5 21 -5 15 -4 19 4 14 8 -5 10 1 5
21 -5 20 -4 25 6 19 9 -5 10 -2 5 14 -4 12 -2 21 4 21 6 0 8 7 5 15 -4 8 -1
15 5 15 6 0 8 7 5 15 -4 8 -1 15 5 15 6 0 8 7 5 15 -4 8 -1 15 5 15 6 0 8 7 4
17 -5 11 -3 14 6 8 10 -6 11 -2 6 15 -5 17 -4 21 6 15 9 -6 11 -3 6 8 -3 10
-2 17 4 17 6 0 7 5 4 10 -3 6 -1 10 5 10 7 0 9 7 6 16 -4 10 -2 13 6 8 8 -5 9
-2 5 9 -3 10 -2 17 4 17 6 0 8 4 5 9 -8 12 4 42 14 36 10 -6 22 24 14 36 -3 5
0 9 6 9 6 0 8 5 5 10 -3 6 -1 10 5 10 6 0 8 4 5 10 -3 6 -1 10 5 10 6 0 8 5 5
10 -3 6 -1 10 5 10 6 0 8 4 5 10 -3 6 -1 10 5 10 6 0 8 5 5 10 -3 6 -2 10 4
10 6 0 15 10 22 21 8 16 8 20 -1 14 -9 -6 -9 -2 -1 14 7 11 17 21 23 21 6 0 8
3 5 7 -4 3 1 12 11 20 11 10 12 12 2 8 -10 -4 -9 -2 2 8 10 8 15 17 11 20 -3
4 -1 7 5 7 6 0 16 10 23 21 9 17 8 20 -3 14 -8 -4 -8 -2 2 7 8 7 16 20 18 28
2 8 13 23 25 33 12 10 16 16 10 12 -22 -11 -14 5 15 32 15 15 20 23 12 19 -8
-4 -4 2 10 14 14 12 18 19 10 15 -8 -4 -4 3 10 15 14 12 18 19 10 15 -8 -4 -4
3 10 15 14 12 18 19 10 15 -8 -4 -4 3 10 15 14 12 18 19 10 15 -8 -4 -4 3 10
15 14 12 18 19 10 15 -8 -4 -4 3 10 15 14 12 18 19 10 15 -8 -4 -4 3 10 15 14
12 18 19 10 15 -8 -4 -4 3 10 15 14 12 18 19 10 15 -8 -4 -4 3 10 15 14 12 18
19 10 15 -8 -4 -4 3 10 15 14 12 18 19 10 15 -8 -4 -4 3 10 15 14 12 18 19 10
15 -10 -4 -9 -2 2 8 10 8 15 17 11 20 -3 4 1 9 10 13 34 13 -19 78 -180 217
-12 11 -20 24 -17 28 2 4 -1 11 -7 15 -8 5 -9 3 -3 -7 4 -8 -34 30 -86 85 -52
54 -95 102 -95 107 0 4 -7 14 -15 21 -12 11 -12 10 -1 -7 7 -11 -3 -3 -23 19
-19 21 -33 43 -29 49 3 6 1 7 -4 4 -13 -8 -145 131 -137 144 3 5 0 8 -7 7 -7
-2 -13 4 -14 12 -1 8 -6 14 -12 13 -6 -1 -21 10 -34 25 -13 14 -17 22 -9 17 9
-6 4 0 -10 13 -14 12 -24 27 -22 33 1 6 -2 8 -7 5 -11 -7 -133 122 -126 133 2
5 -5 17 -18 27 -22 19 -22 19 -7 -1 20 -27 -41 37 -110 117 -30 35 -45 56 -34
48 11 -8 2 2 -21 24 -22 21 -31 33 -20 26 11 -7 4 2 -16 21 -44 43 -80 88 -59
74 9 -6 3 2 -14 16 -16 14 -26 31 -22 37 4 6 -5 19 -19 28 -14 9 -24 19 -22
21 3 2 -7 16 -22 32 -35 38 -69 96 -50 87 8 -4 5 1 -7 11 -34 29 -66 82 -58
94 4 8 3 9 -4 5 -11 -6 -14 0 -11 21 0 3 -6 10 -15 15 -9 5 -14 13 -11 19 4 5
2 9 -4 9 -6 0 -15 10 -22 21 -8 16 -8 20 1 14 9 -6 9 -2 1 14 -7 11 -16 21
-22 21 -6 0 -7 5 -4 10 3 6 1 10 -5 10 -6 0 -8 5 -5 10 3 6 1 10 -5 10 -6 0
-8 5 -5 10 3 6 2 10 -4 10 -6 0 -8 7 -5 15 4 8 -1 17 -9 21 -9 3 -13 12 -10
21 4 10 2 14 -4 10 -12 -8 -26 20 -17 34 3 5 0 9 -6 9 -6 0 -8 5 -5 10 3 6 2
10 -4 10 -6 0 -8 7 -5 15 4 8 1 15 -6 15 -6 0 -8 5 -5 10 3 6 2 10 -4 10 -6 0
-7 7 -4 17 5 12 3 14 -7 8 -10 -6 -12 -4 -7 8 3 10 2 17 -3 17 -5 0 -6 7 -3
17 5 11 3 14 -6 8 -10 -6 -11 -2 -6 15 5 17 4 21 -6 15 -9 -6 -11 -3 -6 8 3
10 2 17 -4 17 -6 0 -8 9 -4 21 5 16 4 19 -5 14 -9 -5 -10 -1 -5 15 5 16 4 20
-5 15 -9 -5 -10 -2 -5 14 4 12 2 21 -4 21 -6 0 -8 7 -5 15 4 8 1 15 -6 15 -7
0 -9 8 -5 21 5 16 4 19 -5 14 -9 -5 -10 -2 -5 14 4 13 2 21 -5 21 -7 0 -9 8
-5 20 4 12 2 20 -5 20 -7 0 -9 8 -5 20 4 12 2 20 -5 20 -6 0 -8 10 -4 25 4 16
2 25 -5 25 -7 0 -9 9 -5 25 4 16 2 25 -6 25 -8 0 -9 10 -5 29 4 17 2 32 -5 36
-6 4 -8 20 -4 41 3 19 2 40 -4 47 -12 15 -12 227 0 227 5 0 6 9 3 20 -4 12 -2
20 5 20 6 0 8 5 5 10 -9 14 14 42 28 33 5 -3 7 -1 4 4 -4 6 0 16 8 23 8 7 15
9 15 4 0 -4 7 1 16 12 8 10 13 13 9 7 -4 -9 -1 -11 9 -7 9 3 13 11 9 17 -4 6
0 8 11 4 9 -4 26 -1 36 6 16 9 24 9 40 -1 11 -7 31 -10 45 -6 16 4 25 2 25 -6
0 -7 8 -9 20 -5 12 4 20 2 20 -5 0 -7 8 -9 20 -5 12 4 20 2 20 -5 0 -7 7 -10
15 -6 8 3 15 1 15 -5 0 -6 9 -8 20 -4 11 4 20 2 20 -4 0 -6 7 -8 15 -5 8 4 15
1 15 -5 0 -6 7 -8 15 -5 8 4 15 1 15 -5 0 -6 7 -8 17 -4 11 5 14 3 8 -6 -6
-10 -2 -11 15 -6 15 5 20 4 16 -4 -5 -7 -1 -9 8 -5 9 3 16 1 16 -5 0 -6 7 -8
17 -4 11 5 14 3 8 -6 -6 -10 -2 -11 15 -6 15 5 20 4 16 -4 -5 -7 -1 -9 8 -5 9
3 16 1 16 -6 0 -6 5 -8 10 -5 6 3 10 2 10 -4 0 -6 7 -7 17 -4 10 4 14 2 10 -4
-8 -12 20 -26 34 -17 5 3 9 1 9 -5 0 -6 7 -7 17 -4 11 4 14 3 9 -5 -5 -8 -2
-10 8 -6 9 3 16 1 16 -6 0 -6 5 -8 10 -5 6 3 10 1 10 -5 0 -6 4 -8 10 -5 6 3
10 2 10 -4 0 -6 7 -7 17 -4 12 5 14 3 8 -7 -5 -8 -4 -11 3 -6 13 8 63 -14 56
-25 -3 -5 3 -6 12 -2 12 4 15 3 10 -5 -5 -8 -1 -10 10 -5 12 4 15 3 10 -5 -5
-8 -2 -10 8 -6 9 4 18 -1 22 -10 3 -9 10 -14 14 -11 12 8 121 -60 112 -70 -4
-5 -1 -5 7 0 9 5 20 0 33 -16 11 -13 17 -17 13 -9 -4 8 3 4 15 -10 12 -14 19
-19 15 -12 -6 11 -3 12 12 3 36 -19 249 -177 314 -233 110 -94 334 -323 424
-433 22 -27 56 -66 75 -86 38 -40 80 -95 80 -104 0 -7 74 -104 100 -130 11
-12 20 -28 20 -38 0 -9 4 -17 10 -17 5 0 17 -15 26 -32 9 -18 20 -35 23 -38 3
-3 12 -14 19 -25 7 -11 22 -35 33 -52 12 -18 25 -33 30 -33 5 0 9 -8 9 -18 0
-11 9 -27 20 -37 11 -10 20 -23 20 -29 0 -16 81 -139 102 -154 10 -7 18 -21
18 -31 0 -11 6 -21 14 -24 7 -3 16 -19 19 -35 3 -16 13 -37 22 -45 8 -9 15
-19 15 -24 0 -4 18 -32 40 -61 22 -29 40 -58 40 -64 0 -6 9 -21 19 -32 11 -12
21 -30 23 -40 1 -11 14 -32 28 -46 27 -29 80 -48 80 -29 0 6 7 9 15 5 8 -3 15
-1 15 5 0 6 9 8 20 4 12 -4 20 -2 20 5 0 7 8 9 21 5 16 -5 19 -4 14 5 -5 9 -2
10 14 5 13 -4 21 -2 21 5 0 7 7 10 15 6 8 -3 15 -1 15 5 0 6 7 9 15 5 8 -3 15
-1 15 5 0 6 9 8 20 4 12 -4 20 -2 20 5 0 7 8 9 20 5 12 -4 20 -2 20 5 0 7 7
10 15 7 8 -4 17 -2 21 4 3 5 14 7 25 4 11 -4 19 -2 19 5 0 7 8 9 20 5 12 -4
20 -2 20 5 0 8 9 10 25 6 15 -4 25 -2 25 5 0 7 11 8 29 4 17 -4 32 -2 36 5 5
7 21 9 46 5 21 -4 39 -3 39 2 0 11 650 10 667 0 7 -5 28 -5 48 -1 24 4 35 3
35 -6 0 -8 10 -9 29 -5 16 3 32 2 35 -3 3 -6 15 -8 26 -5 11 3 20 0 20 -6 0
-7 9 -9 25 -5 16 4 25 2 25 -6 0 -7 8 -9 19 -5 11 3 22 2 25 -4 3 -5 15 -7 26
-4 12 3 20 0 20 -7 0 -7 8 -9 20 -5 12 4 20 2 20 -5 0 -7 8 -9 20 -5 12 4 20
2 20 -5 0 -7 8 -9 20 -5 12 4 20 2 20 -5 0 -7 8 -9 20 -5 12 4 20 2 20 -5 0
-7 8 -9 21 -5 16 5 19 4 14 -5 -5 -9 -2 -10 14 -5 13 4 21 2 21 -5 0 -7 7 -10
15 -6 8 3 15 1 15 -5 0 -6 7 -9 15 -5 8 3 15 1 15 -4 0 -5 7 -7 15 -4 8 4 15
1 15 -6 0 -7 8 -9 21 -5 16 5 19 4 14 -5 -5 -9 -2 -10 14 -5 12 4 21 2 21 -4
0 -6 7 -8 15 -5 8 4 15 1 15 -6 0 -7 6 -10 14 -7 8 3 16 1 18 -5 3 -7 12 -7
28 3 14 7 28 12 32 11 5 -1 7 2 5 7 -1 6 14 24 33 41 19 18 26 27 15 20 -11
-7 0 7 25 30 25 23 36 37 25 30 -11 -7 0 7 25 30 25 23 36 37 25 30 -11 -7 -2
4 21 26 22 21 33 35 24 29 -9 -5 2 8 24 29 23 22 32 33 21 26 -11 -7 3 9 31
36 27 27 43 45 34 39 -9 -5 3 8 25 30 23 22 32 33 20 25 -12 -8 -3 3 20 25 22
22 34 36 25 30 -9 -5 2 8 25 30 22 22 34 36 25 30 -9 -5 2 8 25 30 22 22 34
36 25 30 -9 -5 3 8 25 30 23 22 32 33 20 25 -11 -8 0 5 25 30 25 25 36 38 25
30 -12 -8 -3 3 20 25 22 22 34 36 25 30 -9 -5 0 6 20 25 20 19 29 31 20 25 -9
-5 5 10 30 35 25 25 37 38 25 30 -12 -8 0 5 25 30 25 25 39 41 30 35 -9 -5 7
13 35 40 28 28 38 39 21 25 -26 -22 -25 -19 8 20 21 25 66 72 100 105 34 33
49 49 32 35 -17 -14 17 22 75 80 58 58 77 78 42 45 -124 -117 -60 -47 109 120
95 94 155 150 133 125 -39 -44 -38 -44 10 4 28 28 54 49 58 48 5 -1 6 1 3 6
-3 5 7 20 22 33 22 19 24 20 12 4 -8 -12 8 2 35 30 28 28 46 44 40 35 -5 -9
13 7 40 35 28 28 41 39 30 25 -11 -14 0 -6 24 19 24 25 40 39 36 31 -4 -8 8 3
27 24 19 22 39 36 45 33 6 -4 17 1 24 11 13 15 12 16 -3 3 -10 -7 -18 -11 -18
-8 0 3 15 16 33 28 18 13 28 17 22 8 -5 -8 1 -3 14 11 13 14 20 18 16 10 -4
-8 3 -4 15 10 12 14 19 18 15 10 -4 -8 5 -1 20 15 14 17 23 23 20 15 -4 -8 3
-4 15 10 12 14 19 18 15 10 -4 -8 3 -4 15 10 12 14 19 18 15 10 -4 -8 3 -4 15
10 12 14 19 18 15 10 -4 -8 1 -6 9 4 9 11 16 16 16 10 0 -5 5 -1 11 9 6 9 14
15 20 12 5 -4 9 -1 9 6 0 7 3 9 7 6 3 -4 12 1 20 11 8 9 11 11 8 4 -5 -10 1
-9 24 2 17 9 31 21 31 26 0 5 10 14 21 21 17 9 20 8 14 -3 -4 -7 3 -2 15 12
12 14 19 19 15 12 -6 -11 -3 -12 14 -3 11 7 21 16 21 22 0 6 5 7 10 4 6 -3 10
-1 10 5 0 6 5 8 10 5 6 -3 10 -1 10 5 0 6 5 8 10 5 6 -3 10 -1 10 5 0 6 5 8
10 5 6 -3 10 -1 10 5 0 6 5 8 10 5 6 -3 10 -2 10 4 0 6 10 15 21 22 17 9 20 8
14 -3 -3 -7 0 -5 8 4 8 10 17 15 20 11 4 -3 7 -1 7 6 0 7 5 9 10 6 6 -3 10 -1
10 5 0 6 5 8 10 5 6 -3 10 -1 10 5 0 6 5 8 10 5 6 -3 10 -1 10 5 0 6 5 8 10 5
6 -3 10 -1 10 5 0 6 5 8 10 5 6 -3 10 -1 10 5 0 6 5 8 10 5 6 -3 10 -1 10 5 0
6 5 8 10 5 6 -3 10 -1 10 5 0 6 5 8 10 5 6 -3 10 -1 10 5 0 6 5 8 10 5 6 -3
10 -1 10 5 0 6 5 8 10 5 6 -3 10 -2 10 4 0 6 7 8 15 5 8 -4 17 1 21 10 3 9 10
13 15 10 5 -3 9 0 9 6 0 6 5 8 10 5 6 -3 10 -1 10 5 0 6 5 8 10 5 6 -3 10 -1
10 5 0 6 5 8 10 5 6 -3 10 -1 10 5 0 6 5 8 10 5 6 -3 10 -1 10 5 0 6 5 8 10 5
6 -3 10 -1 10 5 0 6 5 8 10 5 6 -3 10 -2 10 4 0 6 7 7 17 4 10 -4 14 -2 10 4
-8 12 20 26 34 17 5 -3 9 0 9 6 0 6 5 8 10 5 6 -3 10 -1 10 5 0 6 5 8 10 5 6
-3 10 -2 10 3 0 10 135 10 145 0z"/>
<path d="M12380 11380 c-9 -6 -10 -10 -3 -10 6 0 15 5 18 10 8 12 4 12 -15 0z"/>
<path d="M4862 11255 c0 -16 2 -22 5 -12 2 9 2 23 0 30 -3 6 -5 -1 -5 -18z"/>
<path d="M4871 11174 c0 -11 3 -14 6 -6 3 7 2 16 -1 19 -3 4 -6 -2 -5 -13z"/>
<path d="M4881 11114 c0 -11 3 -14 6 -6 3 7 2 16 -1 19 -3 4 -6 -2 -5 -13z"/>
<path d="M5410 11056 c0 -2 7 -7 16 -10 8 -3 12 -2 9 4 -6 10 -25 14 -25 6z"/>
<path d="M12442 11005 c-17 -37 -14 -45 4 -12 9 16 14 31 11 33 -2 2 -9 -7
-15 -21z"/>
<path d="M11534 10888 c-77 -56 -156 -116 -177 -135 -20 -18 -41 -33 -46 -33
-5 0 -98 -88 -208 -195 -109 -107 -201 -195 -205 -195 -5 0 -8 -6 -8 -12 0 -7
-26 -38 -57 -69 -32 -31 -75 -76 -96 -100 -21 -24 -56 -64 -78 -88 -21 -24
-39 -49 -39 -55 0 -6 -9 -17 -20 -24 -11 -7 -20 -18 -20 -25 0 -6 -18 -27 -40
-46 -22 -19 -40 -37 -40 -41 0 -4 -34 -42 -75 -85 -41 -42 -75 -80 -75 -84 0
-4 -9 -18 -20 -31 -11 -13 -20 -29 -20 -36 0 -7 -25 -34 -55 -59 -30 -26 -55
-53 -55 -61 0 -7 -9 -18 -20 -24 -11 -6 -20 -16 -20 -23 -1 -11 -18 -33 -113
-138 -31 -35 -41 -49 -74 -99 -9 -14 -31 -37 -49 -50 -18 -14 -34 -33 -34 -42
0 -10 -9 -22 -20 -28 -11 -6 -20 -20 -20 -30 0 -11 -9 -25 -20 -32 -11 -7 -20
-18 -20 -24 0 -13 -157 -164 -170 -164 -4 0 -59 21 -122 46 -145 58 -238 91
-313 110 -142 37 -235 56 -315 64 -47 4 -103 13 -125 19 -64 17 -610 14 -660
-4 -22 -8 -67 -15 -101 -15 -37 0 -68 -6 -80 -15 -10 -8 -37 -15 -59 -15 -22
0 -53 -7 -69 -15 -15 -8 -39 -15 -53 -15 -14 0 -37 -6 -51 -14 -41 -21 -93
-38 -132 -44 -19 -2 -44 -10 -55 -17 -11 -7 -48 -16 -83 -19 -60 -7 -64 -6
-93 23 -17 18 -27 36 -23 42 5 8 3 9 -6 4 -10 -6 -12 -4 -7 9 5 11 3 15 -5 10
-8 -5 -9 -1 -4 12 4 10 4 15 0 11 -10 -10 -36 31 -28 45 4 6 3 8 -4 4 -10 -6
-28 30 -24 47 1 5 -3 5 -9 1 -9 -5 -10 -2 -6 10 4 9 3 14 -2 11 -9 -5 -27 32
-23 48 1 5 -3 5 -9 1 -9 -5 -10 -2 -6 10 4 9 3 14 -2 11 -9 -5 -27 32 -23 48
1 5 -2 6 -8 2 -9 -6 -14 7 -11 28 0 4 -3 7 -9 7 -5 0 -14 10 -21 21 -9 17 -8
20 3 13 7 -4 -2 7 -20 25 -19 19 -31 40 -28 48 3 8 2 12 -2 9 -4 -3 -14 4 -21
16 -10 16 -10 19 1 12 7 -4 -2 7 -20 25 -21 22 -31 39 -27 50 3 8 3 12 -1 8
-10 -9 -45 44 -37 56 3 6 2 7 -3 4 -5 -3 -17 8 -27 24 -10 18 -12 27 -4 24 6
-4 3 2 -8 12 -12 10 -27 27 -35 37 -13 18 -13 19 0 12 8 -4 4 2 -10 14 -14 12
-18 19 -10 15 8 -4 4 3 -10 14 -14 11 -21 21 -16 21 6 0 1 7 -10 16 -10 8 -12
12 -4 8 8 -5 -2 9 -23 30 -21 21 -36 44 -33 52 3 7 0 16 -6 20 -7 5 -8 2 -4
-7 4 -8 1 -5 -8 5 -8 10 -13 22 -11 27 3 4 0 11 -6 15 -8 4 -9 3 -5 -4 15 -24
-2 -11 -19 14 -12 18 -13 24 -4 19 8 -4 2 3 -12 16 -14 13 -32 33 -40 43 -12
17 -12 19 1 12 8 -5 2 4 -15 19 -16 14 -23 23 -15 19 8 -4 -2 9 -23 29 -22 20
-36 40 -33 46 4 5 1 13 -5 17 -8 5 -10 2 -5 -7 4 -8 1 -5 -8 5 -8 10 -13 23
-10 28 3 5 1 7 -3 6 -12 -4 -113 111 -110 126 1 6 -3 10 -10 9 -13 -3 -98 94
-98 111 0 6 -4 11 -10 11 -18 0 -36 16 -29 26 3 5 0 8 -8 7 -7 -2 -12 3 -11 9
2 7 -3 12 -10 10 -6 -1 -11 4 -10 10 2 7 0 12 -5 10 -11 -3 -112 84 -107 93 2
4 -4 15 -15 25 -11 10 -20 15 -20 11 0 -4 -10 0 -22 9 -13 8 -23 21 -23 28 0
6 -5 12 -12 12 -7 0 -25 14 -40 31 -15 16 -23 23 -18 14 6 -9 -5 0 -24 19 -19
20 -28 27 -21 16 7 -11 -2 -4 -20 15 -18 19 -29 29 -25 22 6 -11 3 -11 -13 -1
-12 7 -18 17 -16 21 3 5 2 8 -3 7 -20 -3 -34 2 -28 11 4 6 3 9 -2 8 -5 -2 -27
5 -50 16 -41 18 -42 18 -72 -4 -48 -33 -60 -68 -76 -216 -9 -75 -18 -140 -21
-145 -3 -5 -9 -95 -14 -201 -6 -114 -16 -215 -25 -248 -10 -37 -15 -99 -15
-196 0 -126 2 -144 20 -167 11 -14 20 -29 20 -34 0 -4 15 -26 34 -48 19 -22
68 -80 109 -130 41 -49 113 -130 161 -180 99 -102 161 -175 161 -190 1 -5 6
-9 11 -8 11 2 111 -95 116 -112 2 -5 6 -9 9 -8 10 3 324 -325 324 -340 1 -6 6
-11 12 -10 11 2 90 -78 137 -140 22 -29 26 -41 17 -46 -7 -5 -12 -11 -12 -15
4 -30 -4 -50 -34 -83 -19 -21 -37 -45 -40 -53 -3 -8 -21 -26 -40 -40 -19 -14
-38 -34 -41 -45 -4 -11 -15 -26 -25 -33 -11 -7 -19 -18 -19 -23 0 -6 -24 -40
-54 -77 -29 -37 -56 -77 -60 -90 -4 -12 -11 -22 -16 -22 -5 0 -14 -16 -20 -35
-6 -19 -15 -35 -20 -35 -5 0 -12 -10 -16 -22 -3 -12 -24 -44 -45 -71 -22 -27
-39 -55 -39 -62 0 -7 -7 -18 -15 -25 -8 -7 -15 -27 -15 -45 0 -19 -8 -39 -20
-50 -11 -10 -20 -29 -20 -42 0 -13 -9 -31 -20 -40 -11 -10 -20 -25 -20 -35 0
-9 -9 -22 -20 -28 -15 -8 -20 -21 -20 -51 0 -26 -7 -50 -20 -66 -13 -17 -20
-41 -20 -71 0 -28 -6 -52 -16 -63 -10 -11 -19 -46 -23 -84 -4 -36 -12 -70 -19
-77 -7 -7 -12 -39 -12 -72 0 -37 -7 -73 -16 -91 -12 -21 -18 -67 -22 -152 -5
-131 -1 -156 23 -147 8 3 12 10 9 15 -3 5 0 9 6 9 6 0 8 5 5 10 -3 6 -1 10 5
10 6 0 8 5 4 11 -4 7 4 20 17 31 13 11 17 17 9 13 -8 -4 -4 3 10 16 14 13 20
20 13 15 -24 -16 -14 0 19 30 18 16 28 22 23 14 -6 -9 1 -4 14 10 13 14 20 18
16 10 -3 -8 0 -7 9 4 8 10 19 15 25 11 6 -3 11 -1 11 5 0 6 6 10 13 9 6 -1 20
1 30 6 25 11 130 0 135 -14 2 -6 7 -9 12 -6 11 7 70 -15 70 -27 0 -5 4 -6 10
-3 6 3 10 1 10 -5 0 -6 4 -9 9 -6 13 8 93 -39 84 -49 -5 -4 -3 -5 3 -2 40 23
299 -238 328 -331 4 -11 13 -26 21 -32 8 -7 15 -24 15 -37 0 -14 9 -36 20 -50
14 -18 20 -41 20 -74 0 -27 8 -68 18 -91 13 -34 17 -72 17 -179 0 -116 -3
-140 -17 -156 -10 -11 -18 -34 -18 -51 0 -20 -8 -39 -20 -49 -11 -10 -20 -28
-20 -40 0 -12 -9 -27 -20 -33 -11 -6 -20 -18 -20 -28 0 -9 -23 -33 -50 -52
-113 -79 -113 -80 -84 -116 8 -10 12 -12 8 -4 -4 8 4 3 19 -12 26 -28 44 -38
31 -17 -3 6 8 3 25 -5 17 -9 31 -21 31 -27 0 -6 5 -7 10 -4 6 3 10 1 10 -5 0
-6 5 -8 10 -5 6 3 10 2 10 -4 0 -6 7 -7 17 -4 10 4 14 2 10 -4 -8 -12 20 -26
34 -17 5 3 9 0 9 -6 0 -6 5 -8 10 -5 6 3 10 2 10 -4 0 -6 7 -8 15 -5 8 4 15 1
15 -6 0 -6 5 -8 10 -5 6 3 10 2 10 -3 0 -6 6 -10 13 -9 33 1 48 -4 41 -14 -4
-8 0 -9 15 -4 11 3 21 2 21 -3 0 -6 10 -8 22 -4 15 4 19 2 13 -7 -6 -10 -2
-11 15 -6 16 5 20 4 15 -5 -5 -9 -2 -10 14 -5 11 3 21 2 21 -3 0 -6 10 -8 22
-4 15 3 19 2 14 -7 -6 -9 0 -10 20 -5 19 5 25 4 20 -5 -6 -8 0 -10 18 -5 15 3
26 2 26 -4 0 -6 10 -8 22 -4 15 3 19 2 14 -7 -6 -8 -1 -10 18 -5 15 3 26 2 26
-4 0 -6 10 -8 22 -4 14 3 19 1 14 -6 -5 -8 2 -10 25 -5 24 4 30 3 25 -6 -6 -8
-1 -10 18 -5 17 4 26 2 26 -6 0 -7 8 -9 20 -5 11 3 20 2 20 -3 0 -5 12 -7 26
-4 20 4 25 2 19 -8 -6 -9 0 -10 24 -5 21 4 31 3 31 -5 0 -7 8 -9 20 -5 11 3
20 2 20 -3 0 -5 11 -7 25 -4 14 2 25 0 25 -6 0 -6 9 -8 20 -5 11 3 20 0 20 -6
0 -7 9 -9 25 -5 14 3 25 2 25 -3 0 -5 14 -8 30 -5 18 3 30 0 30 -7 0 -7 9 -9
25 -5 16 4 25 2 25 -5 0 -7 9 -9 25 -5 16 4 25 2 25 -5 0 -8 12 -10 36 -5 28
5 35 4 29 -5 -5 -9 2 -11 29 -6 25 5 36 4 36 -5 0 -8 10 -9 30 -5 17 4 30 3
30 -2 0 -5 16 -7 35 -5 19 2 43 1 52 -3 26 -11 796 -13 810 -2 7 5 53 7 103 6
49 -2 90 0 90 5 0 5 33 6 74 2 51 -5 77 -3 81 5 5 7 23 9 50 4 28 -4 46 -2 50
5 5 7 20 9 40 6 20 -4 36 -2 40 5 4 6 18 8 31 5 14 -4 24 -2 24 4 0 7 8 9 20
5 12 -4 20 -2 20 5 0 6 10 8 26 4 21 -5 25 -4 19 6 -6 10 -2 11 19 6 16 -4 26
-2 26 4 0 7 8 9 20 5 12 -4 20 -2 20 5 0 7 7 10 15 6 8 -3 15 -1 15 5 0 6 9 8
20 4 12 -4 20 -2 20 5 0 7 8 9 20 5 12 -4 20 -2 20 5 0 7 7 10 15 6 8 -3 15
-1 15 5 0 6 9 8 21 4 16 -5 19 -4 14 6 -6 9 -3 11 8 6 10 -3 17 -2 17 4 0 6 9
8 21 4 16 -5 19 -4 14 6 -6 9 -3 11 8 6 10 -3 17 -2 17 3 0 5 7 7 15 4 8 -4
15 -1 15 5 0 6 7 8 17 4 12 -5 14 -3 8 7 -6 10 -4 12 8 7 10 -3 17 -2 17 3 0
5 7 7 15 4 8 -4 15 -1 15 6 0 6 5 8 10 5 6 -3 10 -1 10 5 0 7 7 10 15 6 8 -3
15 -1 15 5 0 6 5 7 10 4 6 -3 10 -1 10 5 0 6 5 8 10 5 6 -3 10 -1 10 5 0 6 5
8 10 5 6 -3 10 -2 10 4 0 6 10 15 21 22 17 9 20 8 14 -3 -7 -11 -6 -11 6 0 12
11 10 16 -10 33 -13 10 -38 19 -55 19 -39 0 -146 41 -198 75 -45 30 -121 123
-111 137 3 6 1 8 -5 4 -10 -6 -28 30 -24 47 1 5 -3 5 -9 1 -9 -5 -10 -2 -6 10
5 11 3 15 -5 10 -8 -5 -9 -2 -5 10 5 11 3 15 -5 10 -8 -5 -9 -2 -5 10 4 9 3
15 -2 12 -11 -7 -23 22 -15 35 3 5 0 9 -7 9 -7 0 -10 3 -6 6 3 4 -1 13 -9 21
-8 9 -13 22 -10 29 3 8 1 14 -5 14 -5 0 -7 11 -3 26 4 15 3 25 -2 21 -5 -3 -9
59 -9 144 0 82 4 149 8 149 5 0 5 9 2 20 -4 12 -2 20 5 20 7 0 9 8 5 20 -4 12
-2 20 5 20 6 0 8 5 5 10 -3 6 -1 10 5 10 7 0 10 7 6 15 -3 8 -1 15 5 15 6 0 7
5 4 10 -3 6 -2 10 4 10 6 0 8 7 5 15 -4 8 -1 15 6 15 6 0 8 5 5 10 -3 6 -1 10
5 10 6 0 8 5 5 10 -3 6 -1 10 6 10 7 0 9 3 6 7 -4 3 1 12 11 20 11 10 12 12 2
8 -8 -4 -6 1 4 9 11 9 16 16 11 16 -5 0 0 7 11 16 10 8 12 12 4 9 -8 -4 -4 3
10 16 14 13 19 20 10 15 -8 -4 3 9 25 29 22 21 31 32 20 24 -20 -13 -20 -13
-1 8 10 13 23 20 29 16 6 -3 7 -1 3 5 -3 6 3 16 14 22 12 6 18 16 14 23 -4 7
-4 9 1 5 11 -10 37 11 29 23 -3 5 -2 8 3 7 4 -2 28 18 53 43 25 25 36 33 25
19 -11 -14 0 -6 24 19 25 25 41 39 37 31 -4 -8 5 -1 19 15 15 17 24 23 20 15
-3 -8 1 -6 9 4 9 11 16 16 16 11 0 -5 7 0 16 11 8 10 13 13 9 6 -5 -10 -1 -10
19 -1 14 7 23 17 19 22 -4 6 0 8 10 4 10 -3 17 -2 17 4 0 6 5 7 10 4 6 -3 10
-1 10 5 0 7 8 9 20 5 12 -4 20 -2 20 5 0 7 6 10 14 7 8 -3 17 -3 21 1 10 10
175 9 175 -1 0 -5 9 -6 19 -2 11 3 25 -1 34 -9 8 -8 17 -13 20 -10 10 11 145
-90 192 -143 51 -58 65 -77 65 -88 0 -7 6 -18 14 -24 7 -6 16 -27 19 -46 3
-19 12 -42 20 -49 27 -28 37 -187 22 -382 -6 -91 -5 -113 6 -119 8 -5 11 -5 7
0 -4 4 0 14 10 22 11 10 12 12 2 8 -10 -4 -9 -2 2 8 10 8 15 17 11 20 -3 4 -1
7 5 7 6 0 9 7 6 15 -4 8 -1 15 6 15 6 0 8 5 5 10 -3 6 -1 10 5 10 7 0 9 8 5
21 -5 16 -4 19 5 14 9 -5 10 -2 5 14 -4 13 -2 21 5 21 7 0 9 8 5 20 -4 12 -2
20 5 20 8 0 9 10 5 30 -4 19 -3 30 4 30 7 0 9 14 5 39 -4 24 -2 41 5 45 15 10
15 242 0 252 -7 4 -9 24 -5 55 5 34 3 49 -5 49 -8 0 -10 13 -5 40 4 26 2 40
-5 40 -7 0 -8 11 -4 30 4 20 3 30 -5 30 -8 0 -9 10 -5 31 6 24 4 30 -5 24 -10
-6 -12 -1 -7 23 4 20 2 32 -4 32 -7 0 -9 10 -5 25 4 15 2 25 -4 25 -6 0 -8 10
-4 25 4 16 2 25 -6 25 -7 0 -9 8 -5 20 4 12 2 20 -5 20 -8 0 -10 10 -8 25 3
14 1 25 -4 25 -5 0 -6 10 -3 21 5 16 4 19 -6 14 -9 -6 -11 -2 -7 13 4 12 2 22
-4 22 -6 0 -8 9 -5 20 3 11 1 20 -5 20 -6 0 -8 9 -5 20 3 11 1 20 -5 20 -6 0
-8 7 -4 15 3 8 2 15 -3 15 -10 0 -32 71 -25 82 3 4 1 8 -5 8 -6 0 -7 7 -4 17
5 11 3 14 -6 8 -10 -6 -11 -2 -6 15 5 17 4 21 -6 15 -9 -6 -11 -3 -6 8 3 10 2
17 -4 17 -6 0 -7 5 -4 10 3 6 2 10 -4 10 -6 0 -7 7 -4 17 4 10 2 14 -4 10 -12
-7 -36 40 -28 54 4 5 1 9 -5 9 -6 0 -8 5 -5 10 3 6 1 10 -6 10 -7 0 -10 3 -6
6 3 4 -1 13 -9 21 -8 8 -12 19 -9 24 4 5 1 9 -5 9 -6 0 -9 4 -6 9 3 5 -1 12
-10 15 -9 4 -14 13 -10 21 3 9 -1 18 -9 21 -8 3 -23 21 -35 40 -11 20 -14 32
-8 29 7 -4 2 2 -11 13 -13 10 -21 24 -17 30 3 6 1 14 -5 18 -8 5 -9 3 -4 -6 6
-9 4 -11 -4 -6 -7 5 -10 14 -7 22 3 8 0 13 -7 11 -7 -1 -12 6 -12 15 0 9 -4
20 -9 25 -5 5 -6 2 -2 -7 4 -8 -3 -2 -16 15 -13 16 -23 37 -23 45 0 8 -6 15
-13 15 -15 0 -33 25 -26 36 2 4 -1 11 -7 15 -8 5 -10 2 -5 -7 4 -8 -1 -3 -12
11 -11 13 -18 29 -15 34 3 5 2 7 -3 4 -5 -3 -20 9 -34 26 -19 24 -20 28 -5 17
11 -8 -3 7 -31 35 -28 27 -39 40 -24 29 14 -11 8 -2 -14 19 -23 22 -34 36 -26
32 8 -4 5 1 -7 12 -12 11 -19 22 -16 26 4 3 1 6 -5 6 -7 0 -12 5 -12 11 0 5 5
7 12 3 7 -5 9 -2 6 8 -4 10 18 38 65 84 40 38 58 53 42 33 -17 -19 -1 -6 34
30 35 36 58 57 51 46 -7 -11 9 3 36 31 27 27 40 39 29 24 -11 -14 9 4 45 40
36 37 54 52 40 35 -14 -17 11 6 55 50 44 45 62 61 40 36 -37 -43 -36 -42 18 9
57 54 68 67 45 54 -8 -4 -10 -3 -5 2 5 5 12 9 15 10 4 0 66 59 137 130 72 71
114 116 94 99 -19 -16 -4 2 35 40 39 39 62 63 50 55 -11 -8 5 10 36 40 30 30
47 48 36 40 -28 -20 46 66 98 114 22 21 32 33 21 26 -11 -7 -4 2 16 21 19 19
28 30 19 24 -9 -5 0 6 20 25 20 19 29 31 20 25 -9 -5 0 5 19 24 20 19 27 28
16 20 -20 -14 -20 -14 -1 11 11 14 36 40 55 58 20 19 29 31 21 27 -8 -4 -4 3
10 16 14 13 21 22 15 19 -6 -3 1 6 15 20 14 14 21 23 15 20 -6 -3 1 6 15 20
15 14 33 34 41 45 12 18 12 19 -1 10 -9 -5 -4 1 10 15 14 14 21 23 15 20 -6
-3 -2 3 8 13 11 9 16 17 11 17 -4 0 1 7 12 16 10 8 12 13 4 9 -8 -4 -4 3 10
15 14 12 19 19 12 15 -11 -6 -12 -3 -3 14 7 11 16 21 22 21 6 0 8 9 4 20 -3
11 -3 20 2 20 4 0 9 41 10 90 2 65 -1 89 -9 84 -8 -5 -9 11 -4 55 6 48 4 61
-5 55 -9 -5 -10 5 -5 44 5 37 3 52 -5 52 -8 0 -9 14 -4 46 5 34 4 44 -5 39 -9
-6 -10 3 -5 34 5 29 3 41 -5 41 -8 0 -9 10 -5 30 4 20 3 30 -5 30 -8 0 -9 10
-5 31 5 23 4 30 -5 24 -9 -6 -10 1 -5 24 4 21 3 31 -5 31 -7 0 -9 8 -5 20 4
12 2 20 -5 20 -8 0 -10 9 -6 26 5 18 3 24 -5 19 -8 -5 -9 -1 -4 14 4 13 2 21
-5 21 -7 0 -9 8 -5 20 4 12 2 20 -5 20 -7 0 -10 7 -6 15 3 8 1 15 -4 15 -5 0
-6 7 -3 17 5 12 3 14 -7 8 -10 -6 -12 -4 -7 8 3 10 2 17 -3 17 -5 0 -6 7 -3
17 4 10 2 14 -4 10 -5 -4 -15 5 -22 19 -9 20 -9 24 1 19 7 -4 2 3 -12 15 -14
12 -19 19 -12 15 21 -11 13 2 -12 18 -23 16 -28 13 -162 -85z m-5433 -255 c13
-16 12 -17 -3 -4 -17 13 -22 21 -14 21 2 0 10 -8 17 -17z m1269 -2564 c0 -6 8
-8 19 -4 43 13 192 -131 177 -172 -4 -9 -1 -11 5 -7 8 4 9 -1 4 -16 -5 -17 -4
-21 6 -15 9 6 11 3 6 -8 -4 -10 -2 -17 4 -17 6 0 8 -7 5 -17 -4 -9 -1 -20 6
-24 10 -6 14 -72 16 -279 3 -261 3 -271 -17 -296 -12 -15 -21 -41 -21 -59 0
-19 -8 -39 -20 -50 -11 -10 -20 -31 -20 -47 0 -17 -9 -41 -20 -55 -11 -14 -20
-34 -20 -44 0 -10 -9 -23 -20 -29 -11 -6 -20 -16 -20 -23 0 -15 -93 -106 -130
-128 -77 -46 -169 -46 -233 1 -44 31 -98 94 -66 75 8 -5 1 4 -14 18 -21 20
-27 33 -22 48 5 16 4 19 -6 14 -9 -6 -11 -3 -6 8 3 10 2 17 -4 17 -6 0 -8 9
-4 20 4 12 2 20 -5 20 -7 0 -9 8 -5 20 4 12 2 20 -5 20 -8 0 -10 9 -6 24 3 14
1 28 -4 31 -6 4 -8 21 -4 41 4 20 2 34 -3 34 -12 0 -12 205 0 216 4 4 4 23 1
41 -4 21 -2 33 5 33 7 0 9 9 5 25 -4 16 -2 25 6 25 7 0 9 8 5 20 -4 12 -2 20
5 20 7 0 9 8 5 20 -4 11 -2 20 4 20 6 0 8 7 5 15 -4 8 -1 15 5 15 6 0 8 7 5
15 -4 8 -1 15 5 15 6 0 8 7 5 15 -4 8 -1 15 5 15 6 0 8 7 4 17 -5 12 -3 14 7
8 10 -6 12 -4 7 8 -3 10 -2 17 4 17 6 0 7 5 4 10 -3 6 -1 10 5 10 6 0 8 5 5
10 -3 6 -1 10 5 10 6 0 8 5 5 10 -3 6 -1 10 5 10 6 0 8 5 5 10 -3 6 -1 10 5
10 6 0 8 5 5 10 -3 6 -1 10 6 10 7 0 9 3 6 7 -4 3 1 12 11 20 11 10 12 12 2 8
-8 -4 -4 3 10 15 14 12 18 19 10 15 -8 -4 -1 5 16 21 16 16 21 22 10 14 -12
-8 6 13 39 47 59 62 82 81 54 45 -8 -10 -1 -4 15 12 16 17 25 24 22 16 -6 -13
-5 -13 6 0 7 9 21 14 31 12 9 -2 17 1 17 7 0 6 9 11 20 11 11 0 20 -5 20 -11z
m2100 -140 c0 -5 7 -6 15 -3 8 4 17 -1 21 -10 3 -9 10 -14 14 -11 12 7 91 -87
116 -137 31 -63 64 -168 64 -204 0 -17 7 -37 15 -44 21 -18 22 -247 0 -276 -8
-11 -15 -41 -15 -70 0 -36 -6 -59 -20 -77 -11 -14 -20 -39 -20 -56 0 -19 -8
-38 -20 -48 -11 -10 -20 -28 -20 -40 0 -13 -9 -31 -20 -40 -11 -10 -20 -27
-20 -38 0 -11 -9 -26 -20 -33 -11 -7 -20 -19 -20 -28 0 -22 -138 -158 -187
-183 -34 -17 -60 -21 -131 -21 -80 0 -92 3 -133 29 -55 36 -113 96 -105 109 3
6 1 14 -5 18 -8 4 -9 3 -5 -4 4 -7 5 -12 2 -12 -10 0 -37 61 -31 70 3 6 2 10
-4 10 -6 0 -7 7 -4 17 5 11 3 14 -6 8 -10 -6 -11 -2 -6 15 5 17 4 21 -6 15 -9
-6 -11 -2 -7 13 4 12 2 22 -4 22 -5 0 -7 12 -3 30 4 19 3 30 -4 30 -8 0 -9 22
-5 69 5 46 3 70 -5 75 -14 9 -15 123 0 132 7 4 9 23 5 50 -3 28 -2 44 5 44 6
0 8 9 4 20 -4 12 -2 20 5 20 7 0 9 8 5 21 -5 16 -4 19 6 14 9 -6 11 -3 6 8 -4
10 -2 17 4 17 6 0 9 7 5 15 -3 8 -1 15 5 15 6 0 8 7 5 16 -4 10 -2 13 6 8 8
-5 9 -2 5 9 -3 10 -2 17 3 17 5 0 6 7 3 17 -5 12 -3 14 7 8 10 -6 12 -4 7 8
-3 10 -2 17 4 17 6 0 7 5 4 10 -3 6 -1 10 5 10 6 0 8 5 5 10 -3 6 -1 10 6 10
7 0 9 3 6 7 -4 3 1 12 11 20 11 10 12 12 2 8 -8 -4 -6 1 4 9 11 9 16 16 11 16
-5 0 0 7 11 16 10 8 12 13 4 9 -8 -4 -4 3 10 15 14 12 18 19 10 15 -8 -4 -1 5
16 21 16 16 23 25 14 19 -9 -5 0 4 19 22 20 17 48 47 64 65 16 18 25 26 21 18
-4 -8 4 -3 19 13 26 26 44 37 32 17 -3 -6 1 -7 9 -4 9 3 16 10 16 15 0 4 7 6
15 3 8 -4 15 -2 15 2 0 5 36 9 80 10 44 0 80 -3 80 -7z m-300 -72 c0 -2 -12
-14 -27 -28 l-28 -24 24 28 c23 25 31 32 31 24z m-872 -1000 c7 -5 21 -5 32
-2 12 4 20 2 20 -5 0 -6 8 -9 18 -6 38 12 14 -30 -59 -104 -41 -41 -69 -68
-64 -59 6 8 -1 3 -15 -11 -14 -14 -20 -19 -15 -11 9 12 7 12 -12 1 -12 -8 -20
-17 -17 -21 2 -4 -5 -7 -16 -6 -11 1 -20 5 -20 10 0 4 -5 5 -11 1 -6 -3 -23 7
-37 23 -15 16 -21 21 -13 11 28 -36 4 -17 -49 39 -30 32 -41 47 -24 33 16 -14
12 -8 -10 13 -26 25 -40 47 -41 67 -1 16 2 27 7 24 4 -3 8 -2 8 3 0 10 301 10
318 0z m62 -80 c0 -2 -17 -19 -37 -38 l-38 -34 34 38 c33 34 41 42 41 34z"/>
<path d="M7403 7873 c-43 -6 -80 -55 -84 -115 -2 -25 -2 -45 0 -42 2 2 13 -14
23 -36 11 -22 24 -37 29 -34 5 3 9 0 9 -6 0 -6 5 -8 10 -5 6 3 10 2 10 -3 0
-5 11 -9 25 -9 14 0 25 4 25 10 0 6 2 8 6 5 7 -7 61 45 56 55 -2 4 2 7 8 7 7
0 9 8 5 20 -4 11 -2 20 4 20 6 0 11 14 11 30 0 17 -5 30 -11 30 -6 0 -8 9 -4
20 4 12 2 20 -5 20 -6 0 -9 4 -6 9 6 9 -48 32 -68 29 -6 0 -25 -3 -43 -5z"/>
<path d="M7489 7653 c-13 -16 -12 -17 4 -4 9 7 17 15 17 17 0 8 -8 3 -21 -13z"/>
<path d="M9190 7740 c-19 -5 -37 -7 -41 -4 -3 2 -15 -6 -25 -19 -19 -22 -19
-22 1 -7 20 14 20 14 0 -5 -12 -12 -20 -26 -17 -33 2 -7 -1 -12 -6 -12 -17 0
23 -120 50 -146 28 -29 108 -50 119 -32 4 6 12 7 18 4 6 -4 11 -2 11 3 0 6 3
10 8 9 4 -1 21 10 37 26 17 16 23 26 15 22 -8 -4 -7 -1 3 7 10 8 17 19 16 23
-1 5 1 17 5 27 5 9 5 25 1 35 -5 9 -9 22 -9 27 -1 6 -17 26 -37 45 -39 38 -81
47 -149 30z"/>
<path d="M9330 7726 c0 -2 8 -10 18 -17 15 -13 16 -12 3 4 -13 16 -21 21 -21
13z"/>
<path d="M4911 10964 c0 -11 3 -14 6 -6 3 7 2 16 -1 19 -3 4 -6 -2 -5 -13z"/>
<path d="M4931 10884 c0 -11 3 -14 6 -6 3 7 2 16 -1 19 -3 4 -6 -2 -5 -13z"/>
<path d="M12041 10884 c0 -11 3 -14 6 -6 3 7 2 16 -1 19 -3 4 -6 -2 -5 -13z"/>
<path d="M12051 10834 c0 -11 3 -14 6 -6 3 7 2 16 -1 19 -3 4 -6 -2 -5 -13z"/>
<path d="M5461 10794 c0 -11 3 -14 6 -6 3 7 2 16 -1 19 -3 4 -6 -2 -5 -13z"/>
<path d="M12062 10780 c0 -14 2 -19 5 -12 2 6 2 18 0 25 -3 6 -5 1 -5 -13z"/>
<path d="M5451 10734 c0 -11 3 -14 6 -6 3 7 2 16 -1 19 -3 4 -6 -2 -5 -13z"/>
<path d="M12072 10710 c0 -14 2 -19 5 -12 2 6 2 18 0 25 -3 6 -5 1 -5 -13z"/>
<path d="M5441 10664 c0 -11 3 -14 6 -6 3 7 2 16 -1 19 -3 4 -6 -2 -5 -13z"/>
<path d="M12082 10625 c0 -16 2 -22 5 -12 2 9 2 23 0 30 -3 6 -5 -1 -5 -18z"/>
<path d="M10859 10583 l-34 -38 38 34 c34 33 42 41 34 41 -2 0 -19 -17 -38
-37z"/>
<path d="M12240 10600 c-6 -11 -8 -20 -6 -20 3 0 10 9 16 20 6 11 8 20 6 20
-3 0 -10 -9 -16 -20z"/>
<path d="M5030 10596 c0 -11 40 -86 45 -86 3 0 -4 19 -16 43 -23 45 -29 54
-29 43z"/>
<path d="M5432 10580 c0 -14 2 -19 5 -12 2 6 2 18 0 25 -3 6 -5 1 -5 -13z"/>
<path d="M12092 10515 c0 -16 2 -22 5 -12 2 9 2 23 0 30 -3 6 -5 -1 -5 -18z"/>
<path d="M5422 10485 c0 -16 2 -22 5 -12 2 9 2 23 0 30 -3 6 -5 -1 -5 -18z"/>
<path d="M5100 10460 c6 -11 13 -20 16 -20 2 0 0 9 -6 20 -6 11 -13 20 -16 20
-2 0 0 -9 6 -20z"/>
<path d="M12101 10434 c0 -11 3 -14 6 -6 3 7 2 16 -1 19 -3 4 -6 -2 -5 -13z"/>
<path d="M5413 10365 c0 -22 2 -30 4 -17 2 12 2 30 0 40 -3 9 -5 -1 -4 -23z"/>
<path d="M5180 10330 c6 -11 13 -20 16 -20 2 0 0 9 -6 20 -6 11 -13 20 -16 20
-2 0 0 -9 6 -20z"/>
<path d="M5403 10190 c0 -25 2 -35 4 -22 2 12 2 32 0 45 -2 12 -4 2 -4 -23z"/>
<path d="M10509 10213 c-13 -16 -12 -17 4 -4 9 7 17 15 17 17 0 8 -8 3 -21
-13z"/>
<path d="M5340 10086 c0 -2 8 -10 18 -17 15 -13 16 -12 3 4 -13 16 -21 21 -21
13z"/>
<path d="M5392 10070 c0 -14 2 -19 5 -12 2 6 2 18 0 25 -3 6 -5 1 -5 -13z"/>
<path d="M11639 9513 c-13 -16 -12 -17 4 -4 9 7 17 15 17 17 0 8 -8 3 -21 -13z"/>
<path d="M5450 9495 c13 -14 26 -25 28 -25 3 0 -5 11 -18 25 -13 14 -26 25
-28 25 -3 0 5 -11 18 -25z"/>
<path d="M5620 9305 c19 -19 36 -35 39 -35 3 0 -10 16 -29 35 -19 19 -36 35
-39 35 -3 0 10 -16 29 -35z"/>
<path d="M11439 9263 c-13 -16 -12 -17 4 -4 9 7 17 15 17 17 0 8 -8 3 -21 -13z"/>
<path d="M5885 9020 c10 -11 20 -20 23 -20 3 0 -3 9 -13 20 -10 11 -20 20 -23
20 -3 0 3 -9 13 -20z"/>
<path d="M13080 8496 c0 -2 7 -7 16 -10 8 -3 12 -2 9 4 -6 10 -25 14 -25 6z"/>
<path d="M13200 8427 c0 -3 12 -12 26 -22 15 -9 23 -12 20 -6 -7 11 -46 35
-46 28z"/>
<path d="M13275 8370 c10 -11 20 -20 23 -20 3 0 -3 9 -13 20 -10 11 -20 20
-23 20 -3 0 3 -9 13 -20z"/>
<path d="M10504 8338 l-29 -33 33 29 c30 28 37 36 29 36 -2 0 -16 -15 -33 -32z"/>
<path d="M13340 8315 c19 -19 36 -35 39 -35 3 0 -10 16 -29 35 -19 19 -36 35
-39 35 -3 0 10 -16 29 -35z"/>
<path d="M13505 8150 c21 -22 41 -40 44 -40 3 0 -13 18 -34 40 -21 22 -41 40
-44 40 -3 0 13 -18 34 -40z"/>
<path d="M13565 8080 c10 -11 20 -20 23 -20 3 0 -3 9 -13 20 -10 11 -20 20
-23 20 -3 0 3 -9 13 -20z"/>
<path d="M13600 8036 c0 -2 8 -10 18 -17 15 -13 16 -12 3 4 -13 16 -21 21 -21
13z"/>
<path d="M13630 7996 c0 -2 8 -10 18 -17 15 -13 16 -12 3 4 -13 16 -21 21 -21
13z"/>
<path d="M13660 7956 c0 -2 8 -10 18 -17 15 -13 16 -12 3 4 -13 16 -21 21 -21
13z"/>
<path d="M12375 7909 c-4 -6 -5 -12 -2 -15 2 -3 7 2 10 11 7 17 1 20 -8 4z"/>
<path d="M13725 7866 c10 -14 19 -26 22 -26 7 0 -17 39 -28 46 -6 3 -3 -5 6
-20z"/>
<path d="M13790 7770 c6 -11 13 -20 16 -20 2 0 0 9 -6 20 -6 11 -13 20 -16 20
-2 0 0 -9 6 -20z"/>
<path d="M13935 7520 c9 -16 18 -30 21 -30 2 0 -2 14 -11 30 -9 17 -18 30 -21
30 -2 0 2 -13 11 -30z"/>
<path d="M14071 7224 c0 -11 3 -14 6 -6 3 7 2 16 -1 19 -3 4 -6 -2 -5 -13z"/>
<path d="M13955 7088 l-110 -113 113 110 c104 102 117 115 109 115 -1 0 -52
-51 -112 -112z"/>
<path d="M11615 7119 c-4 -6 -5 -12 -2 -15 2 -3 7 2 10 11 7 17 1 20 -8 4z"/>
<path d="M11640 7116 c0 -2 8 -10 18 -17 15 -13 16 -12 3 4 -13 16 -21 21 -21
13z"/>
<path d="M11946 7083 c-6 -14 -5 -15 5 -6 7 7 10 15 7 18 -3 3 -9 -2 -12 -12z"/>
<path d="M11710 7055 c13 -14 26 -25 28 -25 3 0 -5 11 -18 25 -13 14 -26 25
-28 25 -3 0 5 -11 18 -25z"/>
<path d="M12379 7013 c-13 -16 -12 -17 4 -4 9 7 17 15 17 17 0 8 -8 3 -21 -13z"/>
<path d="M12410 7006 c0 -2 8 -10 18 -17 15 -13 16 -12 3 4 -13 16 -21 21 -21
13z"/>
<path d="M11800 6975 c13 -14 26 -25 28 -25 3 0 -5 11 -18 25 -13 14 -26 25
-28 25 -3 0 5 -11 18 -25z"/>
<path d="M12339 6963 c-13 -16 -12 -17 4 -4 9 7 17 15 17 17 0 8 -8 3 -21 -13z"/>
<path d="M12299 6913 c-13 -16 -12 -17 4 -4 9 7 17 15 17 17 0 8 -8 3 -21 -13z"/>
<path d="M12470 6926 c0 -2 8 -10 18 -17 15 -13 16 -12 3 4 -13 16 -21 21 -21
13z"/>
<path d="M13745 6888 l-40 -43 43 40 c39 36 47 45 39 45 -2 0 -21 -19 -42 -42z"/>
<path d="M12229 6823 c-13 -16 -12 -17 4 -4 9 7 17 15 17 17 0 8 -8 3 -21 -13z"/>
<path d="M12540 6826 c0 -2 8 -10 18 -17 15 -13 16 -12 3 4 -13 16 -21 21 -21
13z"/>
<path d="M13610 6765 c-24 -25 -42 -45 -39 -45 3 0 25 20 49 45 24 25 42 45
39 45 -3 0 -25 -20 -49 -45z"/>
<path d="M12199 6783 c-13 -16 -12 -17 4 -4 9 7 17 15 17 17 0 8 -8 3 -21 -13z"/>
<path d="M12164 6738 l-19 -23 23 19 c21 18 27 26 19 26 -2 0 -12 -10 -23 -22z"/>
<path d="M12129 6693 c-13 -16 -12 -17 4 -4 9 7 17 15 17 17 0 8 -8 3 -21 -13z"/>
<path d="M13480 6645 c-24 -25 -42 -45 -39 -45 3 0 25 20 49 45 24 25 42 45
39 45 -3 0 -25 -20 -49 -45z"/>
<path d="M12099 6653 c-13 -16 -12 -17 4 -4 9 7 17 15 17 17 0 8 -8 3 -21 -13z"/>
<path d="M12069 6613 c-13 -16 -12 -17 4 -4 9 7 17 15 17 17 0 8 -8 3 -21 -13z"/>
<path d="M12029 6563 c-13 -16 -12 -17 4 -4 9 7 17 15 17 17 0 8 -8 3 -21 -13z"/>
<path d="M13325 6498 l-80 -83 83 80 c76 74 87 85 79 85 -1 0 -38 -37 -82 -82z"/>
<path d="M11999 6523 c-13 -16 -12 -17 4 -4 9 7 17 15 17 17 0 8 -8 3 -21 -13z"/>
<path d="M11969 6483 c-13 -16 -12 -17 4 -4 9 7 17 15 17 17 0 8 -8 3 -21 -13z"/>
<path d="M11899 6393 c-13 -16 -12 -17 4 -4 9 7 17 15 17 17 0 8 -8 3 -21 -13z"/>
<path d="M13160 6345 c-24 -25 -42 -45 -39 -45 3 0 25 20 49 45 24 25 42 45
39 45 -3 0 -25 -20 -49 -45z"/>
<path d="M11387 6333 c-3 -5 -1 -17 4 -28 7 -17 8 -17 8 8 1 27 -4 34 -12 20z"/>
<path d="M12910 6291 c5 -11 15 -23 21 -27 6 -3 3 5 -6 20 -20 30 -30 35 -15
7z"/>
<path d="M13044 6238 l-29 -33 33 29 c30 28 37 36 29 36 -2 0 -16 -15 -33 -32z"/>
<path d="M12940 6246 c0 -2 8 -10 18 -17 15 -13 16 -12 3 4 -13 16 -21 21 -21
13z"/>
<path d="M12988 6203 c7 -3 16 -2 19 1 4 3 -2 6 -13 5 -11 0 -14 -3 -6 -6z"/>
<path d="M13129 6053 c-13 -16 -12 -17 4 -4 9 7 17 15 17 17 0 8 -8 3 -21 -13z"/>
</g>
</svg>
