<?xml version="1.0" standalone="no"?>
<!DOCTYPE svg PUBLIC "-//W3C//DTD SVG 20010904//EN"
 "http://www.w3.org/TR/2001/REC-SVG-20010904/DTD/svg10.dtd">
<svg version="1.0" xmlns="http://www.w3.org/2000/svg"
 width="794.000000pt" height="609.000000pt" viewBox="0 0 794.000000 609.000000"
 preserveAspectRatio="xMidYMid meet">

<g transform="translate(0.000000,609.000000) scale(0.100000,-0.100000)"
fill="#000000" stroke="none">
<path d="M6260 5641 c-39 -12 -454 -222 -554 -280 -49 -28 -90 -51 -91 -51 -5
0 -167 -111 -225 -153 -102 -75 -294 -245 -400 -354 -142 -145 -210 -223 -459
-523 -117 -140 -242 -291 -279 -335 -37 -44 -91 -110 -121 -147 -30 -38 -59
-68 -66 -68 -6 0 -51 14 -101 30 -115 39 -294 85 -420 107 -75 13 -157 17
-344 17 -282 0 -347 -8 -585 -79 -140 -42 -151 -44 -163 -27 -7 9 -50 76 -94
147 -303 489 -386 609 -548 795 -240 277 -454 447 -748 594 -194 98 -450 186
-537 186 -50 0 -99 -29 -122 -72 -13 -26 -17 -56 -17 -138 1 -235 110 -584
262 -835 139 -230 243 -363 492 -630 41 -45 131 -141 199 -215 69 -74 173
-182 233 -240 60 -58 108 -108 108 -113 0 -4 -46 -76 -103 -160 -288 -427
-386 -661 -428 -1027 -14 -128 -6 -397 15 -492 60 -265 211 -466 499 -666 216
-149 548 -277 913 -351 495 -101 1026 -117 1489 -45 439 67 819 245 1071 501
l62 62 23 -26 c63 -67 173 -70 231 -6 10 10 50 93 91 183 l73 165 60 -3 c49
-3 65 1 94 20 20 13 111 124 211 258 97 129 181 236 186 237 5 2 32 -28 59
-67 183 -263 288 -407 307 -422 36 -29 86 -39 130 -27 36 10 57 26 283 234 27
25 313 294 461 434 182 172 195 193 175 282 -19 82 -173 383 -265 518 -192
285 -433 499 -652 581 -42 16 -182 40 -233 40 -90 0 -105 -19 -293 -380 -73
-140 -159 -304 -191 -365 -32 -60 -87 -166 -123 -235 -92 -175 -86 -169 -133
-137 -28 20 -50 27 -86 27 -89 0 -137 -45 -176 -167 -13 -40 -27 -73 -31 -73
-4 0 -10 17 -14 37 -24 129 -125 402 -197 533 -72 129 -172 275 -235 341 l-34
36 28 23 c15 12 113 101 217 198 338 317 597 629 809 976 7 11 27 43 44 72 42
68 195 369 256 502 86 190 207 556 207 628 0 42 -36 107 -70 127 -34 21 -114
30 -150 18z m56 -168 c-35 -124 -61 -209 -78 -258 -35 -102 -252 -525 -270
-525 -3 0 -9 24 -12 53 -3 28 -10 99 -16 157 -13 125 -43 252 -72 298 -11 18
-18 38 -15 45 8 21 209 135 362 205 103 47 108 48 101 25z m-5611 -180 c59
-21 301 -136 314 -149 3 -2 -5 -25 -17 -52 -26 -55 -57 -297 -68 -519 -4 -79
-9 -143 -13 -143 -16 0 -211 301 -257 397 -53 110 -107 306 -129 470 l-7 52
54 -15 c29 -9 85 -28 123 -41z m4974 -210 c54 -95 99 -314 122 -595 13 -166
11 -175 -50 -263 -243 -349 -532 -673 -811 -909 -142 -120 -210 -187 -210
-206 0 -8 13 -29 28 -46 140 -162 247 -313 312 -441 89 -178 130 -312 181
-584 48 -254 40 -475 -21 -618 -21 -49 -45 -79 -55 -69 -3 2 3 55 12 117 16
105 16 119 1 190 -23 111 -61 186 -132 257 -83 82 -141 109 -231 108 -125 -2
-221 -52 -360 -189 -96 -95 -148 -173 -194 -294 -21 -57 -25 -83 -25 -181 0
-103 3 -122 29 -185 51 -127 120 -217 196 -255 21 -11 73 -26 115 -32 75 -12
75 -12 52 -30 -76 -58 -333 -146 -548 -187 -170 -33 -836 -53 -1040 -32 -185
19 -699 128 -876 186 -108 35 -248 101 -302 142 l-34 25 39 18 c115 52 191
223 180 410 -13 244 -146 449 -359 555 -63 31 -114 50 -148 53 -98 9 -176 -42
-221 -148 -12 -27 -25 -47 -30 -44 -21 13 -2 251 32 409 30 139 65 238 133
381 95 196 174 316 339 513 44 52 81 101 84 108 3 7 -106 125 -255 275 -402
407 -587 616 -598 675 -11 57 3 347 26 543 31 267 57 348 109 335 99 -23 416
-304 592 -525 181 -227 425 -599 590 -902 34 -62 45 -67 104 -49 356 109 438
127 635 141 155 10 334 -4 529 -41 185 -36 275 -64 488 -155 6 -3 45 39 87 93
42 54 104 132 138 174 35 42 135 163 223 270 248 301 398 475 509 587 106 109
273 259 342 308 22 16 81 59 130 96 49 37 94 68 99 68 6 0 26 -26 44 -57z
m917 -1779 c102 -32 189 -85 287 -171 170 -150 342 -386 478 -656 59 -118 77
-162 70 -175 -11 -20 -129 -134 -306 -297 -71 -65 -164 -151 -205 -190 -155
-147 -236 -223 -266 -249 -37 -30 -32 -34 -112 84 -28 41 -82 120 -121 175
-38 55 -107 155 -153 222 -46 68 -87 121 -93 120 -8 -3 -417 -536 -468 -611
-12 -18 -17 -14 -61 57 -27 42 -51 77 -55 77 -3 -1 -26 -42 -51 -93 -37 -77
-45 -88 -48 -65 -2 19 -8 25 -18 21 -10 -4 -14 3 -14 28 -1 30 -2 32 -14 17
-18 -24 -25 -13 -20 30 4 33 3 35 -7 15 -12 -22 -29 -31 -29 -15 0 16 197 600
206 611 2 2 42 -32 89 -74 73 -67 88 -76 99 -64 8 8 48 82 89 164 42 83 102
200 135 260 32 61 98 187 147 280 48 94 100 193 115 220 15 28 53 101 84 163
32 61 64 119 72 127 22 22 81 18 170 -11z"/>
<path d="M2335 2932 c-143 -88 -254 -344 -255 -588 0 -94 27 -231 57 -286 31
-57 95 -108 135 -108 42 0 121 44 159 88 64 75 120 202 150 337 17 75 17 283
1 353 -24 108 -73 181 -138 208 -45 19 -73 18 -109 -4z m164 -126 c47 -50 36
-153 -20 -182 -25 -13 -33 -13 -63 0 -66 27 -70 139 -8 185 36 27 64 26 91 -3z"/>
<path d="M3823 2829 c-95 -46 -188 -177 -246 -343 -29 -84 -31 -101 -31 -221
0 -145 20 -235 70 -310 83 -126 216 -137 331 -27 107 101 164 210 199 382 44
218 -25 461 -148 526 -39 20 -125 17 -175 -7z m58 -145 c36 -34 44 -72 25
-117 -16 -40 -59 -67 -107 -67 -46 0 -99 56 -99 105 0 47 14 71 53 96 41 26
90 19 128 -17z"/>
<path d="M2878 2043 c-16 -2 -28 -10 -28 -17 0 -39 114 -156 152 -156 34 0
166 119 168 151 1 20 -206 35 -292 22z"/>
</g>
</svg>
